<svg width="114" height="50" viewBox="0 0 114 50" fill="none" xmlns="http://www.w3.org/2000/svg">
<path d="M16.6326 13.1259C16.3417 14.3176 16.1125 15.4793 15.8738 16.6259L15.115 20.0576L26.277 17.7315L25.7049 26.654C21.327 27.3455 17.2107 28.1318 13.356 29.0129C12.3159 34.7022 11.5032 40.3222 10.9178 45.8728L0 48.6832L7.47107 3.05947L29.3066 0L28.5163 11.722C24.2573 12.1115 20.2961 12.5795 16.6326 13.1259Z" fill="#1B8EF2"/>
<path d="M33.5866 3.67359L44.5826 1.63623C41.5182 13.3879 39.1564 24.2306 37.4971 34.1642L48.7483 32.4484L47.7878 44.2895C40.3344 45.121 32.9666 46.59 25.7656 48.6803L33.5866 3.67359Z" fill="#EA4B2A"/>
<path d="M69.9532 7.61984L80.8092 5.71247C78.6779 14.2013 77.1183 20.9272 76.1303 25.8904L79.1983 25.6989L77.8564 37.6234H75.9355C75.1301 37.6644 74.5113 37.6904 74.0846 37.6904C73.6162 40.5319 73.2558 43.3542 73.0033 46.1573L62.917 48.7023L64.7008 38.131C60.5726 38.3901 56.4032 38.7718 52.1927 39.2763L49.6406 33.8688L58.2574 3.11958L70.3236 1.34082C66.7882 10.4627 63.7865 18.9496 61.3186 26.8017L66.7466 26.4856L69.9532 7.61984Z" fill="#F2C029"/>
<path d="M87.0359 3.66653L98.0127 1.62917C97.0284 5.36182 96.304 8.31183 95.8393 10.4792C99.5412 7.25461 102.926 4.15591 105.993 1.18311L113.999 6.3675L101.454 17.5189L108.53 43.4409L96.9672 49.5585L92.4955 25.5124C91.1746 32.3593 90.135 39.1441 89.3767 45.8669L79.2383 48.6664L87.0359 3.66653Z" fill="#36B247"/>
</svg>
